<mxfile host="app.diagrams.net" agent="Mozilla/5.0 (Windows NT 10.0; Win64; x64) AppleWebKit/537.36 (KHTML, like Gecko) Chrome/138.0.0.0 Safari/537.36 Edg/138.0.0.0" version="28.0.7">
  <diagram name="Page-1" id="HdtFRXUh1uFC-UkyMDsX">
    <mxGraphModel dx="1034" dy="570" grid="1" gridSize="14" guides="1" tooltips="1" connect="1" arrows="1" fold="1" page="1" pageScale="1" pageWidth="850" pageHeight="1100" math="0" shadow="0">
      <root>
        <mxCell id="0" />
        <mxCell id="1" parent="0" />
        <mxCell id="oAu8jeY3y31fhomywneg-1" value="&lt;font style=&quot;font-size: 24px;&quot;&gt;&lt;font style=&quot;&quot;&gt;S&lt;/font&gt;&lt;font style=&quot;&quot;&gt;tudent Information System&lt;/font&gt;&lt;/font&gt;" style="rounded=0;whiteSpace=wrap;html=1;fillColor=light-dark(#000000,#FF521A);" vertex="1" parent="1">
          <mxGeometry x="224" y="56" width="448" height="60" as="geometry" />
        </mxCell>
        <mxCell id="oAu8jeY3y31fhomywneg-4" value="&lt;font style=&quot;font-size: 14px;&quot;&gt;Manage Timetable&lt;/font&gt;&lt;div&gt;&lt;font size=&quot;3&quot;&gt;Details&lt;/font&gt;&lt;/div&gt;" style="rounded=0;whiteSpace=wrap;html=1;fillColor=light-dark(#000000,#FF521A);" vertex="1" parent="1">
          <mxGeometry x="616" y="168" width="234" height="42" as="geometry" />
        </mxCell>
        <mxCell id="oAu8jeY3y31fhomywneg-5" value="&lt;font style=&quot;font-size: 14px;&quot;&gt;Manage Attendence&amp;nbsp;&lt;/font&gt;&lt;div&gt;&lt;font size=&quot;3&quot;&gt;details&lt;/font&gt;&lt;/div&gt;" style="rounded=0;whiteSpace=wrap;html=1;fillColor=light-dark(#000000,#FF521A);" vertex="1" parent="1">
          <mxGeometry x="616" y="224" width="238" height="42" as="geometry" />
        </mxCell>
        <mxCell id="oAu8jeY3y31fhomywneg-6" value="&lt;font style=&quot;font-size: 14px;&quot;&gt;Manage Class Details&lt;/font&gt;" style="rounded=0;whiteSpace=wrap;html=1;fillColor=light-dark(#000000,#FF521A);" vertex="1" parent="1">
          <mxGeometry x="616" y="280" width="238" height="42" as="geometry" />
        </mxCell>
        <mxCell id="oAu8jeY3y31fhomywneg-8" value="&lt;font style=&quot;font-size: 14px;&quot;&gt;Manage Student&lt;/font&gt;&lt;div&gt;&lt;font size=&quot;3&quot;&gt;Details&lt;/font&gt;&lt;/div&gt;" style="rounded=0;whiteSpace=wrap;html=1;fillColor=light-dark(#000000,#FF521A);" vertex="1" parent="1">
          <mxGeometry x="616" y="336" width="238" height="42" as="geometry" />
        </mxCell>
        <mxCell id="oAu8jeY3y31fhomywneg-9" value="&lt;font style=&quot;font-size: 14px;&quot;&gt;Manage Fees Details&lt;/font&gt;" style="rounded=0;whiteSpace=wrap;html=1;fillColor=light-dark(#000000,#FF521A);" vertex="1" parent="1">
          <mxGeometry x="616" y="392" width="238" height="42" as="geometry" />
        </mxCell>
        <mxCell id="oAu8jeY3y31fhomywneg-10" value="&lt;font style=&quot;font-size: 14px;&quot;&gt;Manage Teacher&lt;/font&gt;&lt;div&gt;&lt;font size=&quot;3&quot;&gt;Profiles&lt;/font&gt;&lt;/div&gt;" style="rounded=0;whiteSpace=wrap;html=1;fillColor=light-dark(#000000,#FF521A);" vertex="1" parent="1">
          <mxGeometry x="616" y="448" width="238" height="42" as="geometry" />
        </mxCell>
        <mxCell id="oAu8jeY3y31fhomywneg-12" value="&lt;font style=&quot;font-size: 14px;&quot;&gt;Manage Report&lt;/font&gt;" style="rounded=0;whiteSpace=wrap;html=1;fillColor=light-dark(#000000,#FF521A);" vertex="1" parent="1">
          <mxGeometry x="616" y="504" width="238" height="42" as="geometry" />
        </mxCell>
        <mxCell id="oAu8jeY3y31fhomywneg-13" value="&lt;font style=&quot;font-size: 14px;&quot;&gt;Admin&lt;/font&gt;" style="rounded=0;whiteSpace=wrap;html=1;fillColor=light-dark(#000000,#FF521A);" vertex="1" parent="1">
          <mxGeometry x="33.25" y="182" width="154" height="42" as="geometry" />
        </mxCell>
        <mxCell id="oAu8jeY3y31fhomywneg-14" value="&lt;font style=&quot;font-size: 14px;&quot;&gt;Login to&lt;/font&gt;&lt;div&gt;&lt;font size=&quot;3&quot;&gt;Modules&lt;/font&gt;&lt;/div&gt;" style="ellipse;whiteSpace=wrap;html=1;aspect=fixed;fillColor=light-dark(#000000,#FF521A);" vertex="1" parent="1">
          <mxGeometry x="252" y="168" width="98" height="98" as="geometry" />
        </mxCell>
        <mxCell id="oAu8jeY3y31fhomywneg-15" value="&lt;font style=&quot;font-size: 14px;&quot;&gt;Check&lt;/font&gt;&lt;div&gt;&lt;font size=&quot;3&quot;&gt;Credentials&lt;/font&gt;&lt;/div&gt;" style="ellipse;whiteSpace=wrap;html=1;aspect=fixed;fillColor=light-dark(#000000,#FF521A);" vertex="1" parent="1">
          <mxGeometry x="256" y="322.5" width="97.5" height="97.5" as="geometry" />
        </mxCell>
        <mxCell id="oAu8jeY3y31fhomywneg-16" value="&lt;font style=&quot;font-size: 14px;&quot;&gt;Manage&lt;/font&gt;&lt;div&gt;&lt;font size=&quot;3&quot;&gt;&amp;nbsp;modules&lt;/font&gt;&lt;/div&gt;" style="ellipse;whiteSpace=wrap;html=1;aspect=fixed;fillColor=light-dark(#000000,#FF521A);" vertex="1" parent="1">
          <mxGeometry x="448" y="319" width="101" height="101" as="geometry" />
        </mxCell>
        <mxCell id="oAu8jeY3y31fhomywneg-17" value="&lt;font style=&quot;font-size: 14px;&quot;&gt;Check roles&lt;/font&gt;&lt;div&gt;&lt;font size=&quot;3&quot;&gt;Access&lt;/font&gt;&lt;/div&gt;" style="ellipse;whiteSpace=wrap;html=1;aspect=fixed;fillColor=light-dark(#000000,#FF521A);" vertex="1" parent="1">
          <mxGeometry x="458.5" y="168" width="98" height="98" as="geometry" />
        </mxCell>
        <mxCell id="oAu8jeY3y31fhomywneg-18" value="&lt;font style=&quot;font-size: 14px;&quot;&gt;Forgot&lt;/font&gt;&lt;div&gt;&lt;font size=&quot;3&quot;&gt;Password&lt;/font&gt;&lt;/div&gt;" style="ellipse;whiteSpace=wrap;html=1;aspect=fixed;fillColor=light-dark(#000000,#FF521A);" vertex="1" parent="1">
          <mxGeometry x="42" y="319" width="101" height="101" as="geometry" />
        </mxCell>
        <mxCell id="oAu8jeY3y31fhomywneg-19" value="&lt;font style=&quot;font-size: 14px;&quot;&gt;Send Email&lt;/font&gt;&lt;div&gt;&lt;font size=&quot;3&quot;&gt;to User&lt;/font&gt;&lt;/div&gt;" style="ellipse;whiteSpace=wrap;html=1;aspect=fixed;fillColor=light-dark(#000000,#FF521A);" vertex="1" parent="1">
          <mxGeometry x="52.5" y="490" width="98" height="98" as="geometry" />
        </mxCell>
        <mxCell id="oAu8jeY3y31fhomywneg-20" value="&lt;font style=&quot;font-size: 14px;&quot;&gt;Manage System&amp;nbsp;&lt;/font&gt;&lt;div&gt;&lt;font size=&quot;3&quot;&gt;Admins&lt;/font&gt;&lt;/div&gt;" style="rounded=0;whiteSpace=wrap;html=1;fillColor=light-dark(#000000,#FF521A);" vertex="1" parent="1">
          <mxGeometry x="15.75" y="644" width="171.5" height="46" as="geometry" />
        </mxCell>
        <mxCell id="oAu8jeY3y31fhomywneg-21" value="&lt;font style=&quot;font-size: 14px;&quot;&gt;Manage Roles of&lt;/font&gt;&lt;div&gt;&lt;font size=&quot;3&quot;&gt;User&lt;/font&gt;&lt;/div&gt;" style="rounded=0;whiteSpace=wrap;html=1;fillColor=light-dark(#000000,#FF521A);" vertex="1" parent="1">
          <mxGeometry x="215.75" y="642.5" width="178" height="49" as="geometry" />
        </mxCell>
        <mxCell id="oAu8jeY3y31fhomywneg-22" value="&lt;font style=&quot;font-size: 14px;&quot;&gt;Manage User&amp;nbsp;&lt;/font&gt;&lt;div&gt;&lt;font size=&quot;3&quot;&gt;Permission&lt;/font&gt;&lt;/div&gt;" style="rounded=0;whiteSpace=wrap;html=1;fillColor=light-dark(#000000,#FF521A);" vertex="1" parent="1">
          <mxGeometry x="425.25" y="648" width="164.5" height="42" as="geometry" />
        </mxCell>
        <mxCell id="oAu8jeY3y31fhomywneg-23" style="edgeStyle=orthogonalEdgeStyle;rounded=0;orthogonalLoop=1;jettySize=auto;html=1;exitX=1;exitY=0.5;exitDx=0;exitDy=0;entryX=1;entryY=0.75;entryDx=0;entryDy=0;" edge="1" parent="1" source="oAu8jeY3y31fhomywneg-21" target="oAu8jeY3y31fhomywneg-21">
          <mxGeometry relative="1" as="geometry" />
        </mxCell>
        <mxCell id="oAu8jeY3y31fhomywneg-24" value="" style="endArrow=classic;html=1;rounded=0;entryX=0;entryY=0.25;entryDx=0;entryDy=0;" edge="1" parent="1" target="oAu8jeY3y31fhomywneg-4">
          <mxGeometry width="50" height="50" relative="1" as="geometry">
            <mxPoint x="532" y="330" as="sourcePoint" />
            <mxPoint x="574" y="294" as="targetPoint" />
          </mxGeometry>
        </mxCell>
        <mxCell id="oAu8jeY3y31fhomywneg-27" value="" style="endArrow=classic;html=1;rounded=0;entryX=0;entryY=0.75;entryDx=0;entryDy=0;" edge="1" parent="1" target="oAu8jeY3y31fhomywneg-5">
          <mxGeometry width="50" height="50" relative="1" as="geometry">
            <mxPoint x="546" y="350" as="sourcePoint" />
            <mxPoint x="596" y="294" as="targetPoint" />
          </mxGeometry>
        </mxCell>
        <mxCell id="oAu8jeY3y31fhomywneg-28" value="" style="endArrow=classic;html=1;rounded=0;entryX=0;entryY=0.5;entryDx=0;entryDy=0;" edge="1" parent="1" target="oAu8jeY3y31fhomywneg-6">
          <mxGeometry width="50" height="50" relative="1" as="geometry">
            <mxPoint x="549" y="373" as="sourcePoint" />
            <mxPoint x="599" y="322.5" as="targetPoint" />
          </mxGeometry>
        </mxCell>
        <mxCell id="oAu8jeY3y31fhomywneg-29" value="" style="endArrow=classic;html=1;rounded=0;entryX=0;entryY=0.75;entryDx=0;entryDy=0;" edge="1" parent="1" target="oAu8jeY3y31fhomywneg-8">
          <mxGeometry width="50" height="50" relative="1" as="geometry">
            <mxPoint x="549" y="382" as="sourcePoint" />
            <mxPoint x="599" y="332" as="targetPoint" />
          </mxGeometry>
        </mxCell>
        <mxCell id="oAu8jeY3y31fhomywneg-30" value="" style="endArrow=classic;html=1;rounded=0;entryX=0;entryY=0.5;entryDx=0;entryDy=0;" edge="1" parent="1" target="oAu8jeY3y31fhomywneg-9">
          <mxGeometry width="50" height="50" relative="1" as="geometry">
            <mxPoint x="546" y="392" as="sourcePoint" />
            <mxPoint x="596" y="342" as="targetPoint" />
          </mxGeometry>
        </mxCell>
        <mxCell id="oAu8jeY3y31fhomywneg-31" value="" style="endArrow=classic;html=1;rounded=0;entryX=0;entryY=0.5;entryDx=0;entryDy=0;" edge="1" parent="1" target="oAu8jeY3y31fhomywneg-10">
          <mxGeometry width="50" height="50" relative="1" as="geometry">
            <mxPoint x="546" y="396.25" as="sourcePoint" />
            <mxPoint x="596" y="346.25" as="targetPoint" />
          </mxGeometry>
        </mxCell>
        <mxCell id="oAu8jeY3y31fhomywneg-32" value="" style="endArrow=classic;html=1;rounded=0;exitX=0.828;exitY=0.925;exitDx=0;exitDy=0;exitPerimeter=0;entryX=0;entryY=0.25;entryDx=0;entryDy=0;" edge="1" parent="1" source="oAu8jeY3y31fhomywneg-16" target="oAu8jeY3y31fhomywneg-12">
          <mxGeometry width="50" height="50" relative="1" as="geometry">
            <mxPoint x="532" y="414" as="sourcePoint" />
            <mxPoint x="582" y="364" as="targetPoint" />
          </mxGeometry>
        </mxCell>
        <mxCell id="oAu8jeY3y31fhomywneg-33" value="" style="endArrow=classic;html=1;rounded=0;" edge="1" parent="1" target="oAu8jeY3y31fhomywneg-16">
          <mxGeometry width="50" height="50" relative="1" as="geometry">
            <mxPoint x="499" y="266" as="sourcePoint" />
            <mxPoint x="549" y="216" as="targetPoint" />
          </mxGeometry>
        </mxCell>
        <mxCell id="oAu8jeY3y31fhomywneg-35" value="" style="endArrow=classic;html=1;rounded=0;entryX=0.448;entryY=0.238;entryDx=0;entryDy=0;entryPerimeter=0;" edge="1" parent="1" target="oAu8jeY3y31fhomywneg-22">
          <mxGeometry width="50" height="50" relative="1" as="geometry">
            <mxPoint x="499" y="420" as="sourcePoint" />
            <mxPoint x="549" y="370" as="targetPoint" />
          </mxGeometry>
        </mxCell>
        <mxCell id="oAu8jeY3y31fhomywneg-37" value="" style="endArrow=classic;html=1;rounded=0;entryX=0.597;entryY=-0.059;entryDx=0;entryDy=0;entryPerimeter=0;" edge="1" parent="1" target="oAu8jeY3y31fhomywneg-21">
          <mxGeometry width="50" height="50" relative="1" as="geometry">
            <mxPoint x="499" y="420" as="sourcePoint" />
            <mxPoint x="549" y="370" as="targetPoint" />
          </mxGeometry>
        </mxCell>
        <mxCell id="oAu8jeY3y31fhomywneg-38" value="" style="endArrow=classic;html=1;rounded=0;entryX=0.643;entryY=0;entryDx=0;entryDy=0;entryPerimeter=0;" edge="1" parent="1" target="oAu8jeY3y31fhomywneg-20">
          <mxGeometry width="50" height="50" relative="1" as="geometry">
            <mxPoint x="499" y="420" as="sourcePoint" />
            <mxPoint x="549" y="370" as="targetPoint" />
          </mxGeometry>
        </mxCell>
        <mxCell id="oAu8jeY3y31fhomywneg-39" value="" style="endArrow=classic;html=1;rounded=0;entryX=-0.005;entryY=0.624;entryDx=0;entryDy=0;entryPerimeter=0;" edge="1" parent="1" target="oAu8jeY3y31fhomywneg-17">
          <mxGeometry width="50" height="50" relative="1" as="geometry">
            <mxPoint x="343.75" y="344" as="sourcePoint" />
            <mxPoint x="393.75" y="294" as="targetPoint" />
          </mxGeometry>
        </mxCell>
        <mxCell id="oAu8jeY3y31fhomywneg-40" value="" style="endArrow=classic;html=1;rounded=0;entryX=0.5;entryY=0;entryDx=0;entryDy=0;" edge="1" parent="1" target="oAu8jeY3y31fhomywneg-15">
          <mxGeometry width="50" height="50" relative="1" as="geometry">
            <mxPoint x="303.5" y="266" as="sourcePoint" />
            <mxPoint x="353.5" y="216" as="targetPoint" />
          </mxGeometry>
        </mxCell>
        <mxCell id="oAu8jeY3y31fhomywneg-41" value="" style="endArrow=classic;html=1;rounded=0;" edge="1" parent="1">
          <mxGeometry width="50" height="50" relative="1" as="geometry">
            <mxPoint x="187.25" y="210" as="sourcePoint" />
            <mxPoint x="252" y="210" as="targetPoint" />
          </mxGeometry>
        </mxCell>
        <mxCell id="oAu8jeY3y31fhomywneg-42" value="" style="endArrow=classic;html=1;rounded=0;entryX=0.602;entryY=-0.002;entryDx=0;entryDy=0;entryPerimeter=0;" edge="1" parent="1" target="oAu8jeY3y31fhomywneg-18">
          <mxGeometry width="50" height="50" relative="1" as="geometry">
            <mxPoint x="100.5" y="224" as="sourcePoint" />
            <mxPoint x="150.5" y="174" as="targetPoint" />
          </mxGeometry>
        </mxCell>
        <mxCell id="oAu8jeY3y31fhomywneg-43" value="" style="endArrow=classic;html=1;rounded=0;entryX=0.415;entryY=-0.008;entryDx=0;entryDy=0;entryPerimeter=0;" edge="1" parent="1" target="oAu8jeY3y31fhomywneg-19">
          <mxGeometry width="50" height="50" relative="1" as="geometry">
            <mxPoint x="93" y="420" as="sourcePoint" />
            <mxPoint x="143" y="370" as="targetPoint" />
          </mxGeometry>
        </mxCell>
      </root>
    </mxGraphModel>
  </diagram>
</mxfile>
